<svg width="16" height="16" viewBox="0 0 16 16" fill="none" xmlns="http://www.w3.org/2000/svg">
<path fill-rule="evenodd" clip-rule="evenodd" d="M10.1748 10.9675C9.10742 11.8701 7.74023 12.4034 6.23633 12.4034C2.84473 12.4034 0.0683594 9.64099 0.0683594 6.23584C0.0683594 2.84448 2.84473 0.0683594 6.23633 0.0683594C9.64062 0.0683594 12.4033 2.83081 12.4033 6.23584C12.4033 7.72644 11.8564 9.10767 10.9678 10.1743L15.7539 14.9607C15.9727 15.1794 15.9727 15.535 15.7539 15.7538C15.6445 15.8633 15.5078 15.918 15.3574 15.918C15.207 15.918 15.0703 15.8633 14.9609 15.7538L10.1748 10.9675ZM11.2822 6.23584C11.2822 3.45984 9.02539 1.1897 6.23535 1.1897C3.45996 1.1897 1.18945 3.45984 1.18945 6.23584C1.18945 9.01196 3.44629 11.282 6.23535 11.282C9.02539 11.282 11.2822 9.02563 11.2822 6.23584Z" fill="black"/>
</svg>
